# xmcd
#
# Track frame offsets:
#	150
#	16193
#	32018
#	48258
#	64321
#	77864
#	101378
#	115699
#	129396
#	147112
#	160922
#	175779
#	192948
#	205014
#	223558
#	234979
#	252061
#	270130
#	288603
#	304903
#	326964
#
# Disc length: 4734 seconds
#
# Revision: 2
# Processed by: cddbd v1.5.2PL0 Copyright (c) Steve Scherf et al.
# Submitted via: audiograbber 1.83.01
#
DISCID=1f127c15
DTITLE=Jools Holland - Best Of Friends [Rhino]
DYEAR=0000
DGENRE=Big Band
TTITLE0=Jools Holland and His Rythm and Blues Orchestra - Tuxedo Junction [Instrume
TTITLE0=ntal]
TTITLE1=Jools Holland and Lulu - Where Have All The Good Guys Gone
TTITLE2=Jools Holland and Chrissie Hynde - Out Of This World
TTITLE3=Jools Holland and Edwin Starr - Snowflake Boogie [2007 Remix]
TTITLE4=Jools Holland and Norah Jones - In The Dark
TTITLE5=Jools Holland and George Harrison - Horse To The Water [2007 Remix]
TTITLE6=Jools Holland and Ruby Turner - To Love A Child
TTITLE7=Jools Holland and Prince Buster - Enjoy Yourself (It's Later Than You Thi
TTITLE7=nk)
TTITLE8=Jools Holland and Stereophonics - First Time Ever I Saw Your Face
TTITLE9=Jools Holland and Sting - Seventh Song
TTITLE10=Jools Holland and Shane MacGowan - Just To Be Home With You
TTITLE11=Jools Holland and KT Tunstall - Darkness On The Face Of The Earth
TTITLE12=Jools Holland and Joe Strummer - The Return Of The Blues Cowboy
TTITLE13=Jools Holland and Mica Paris and David Gilmour - I Put A Spell On You
TTITLE14=Jools Holland and The Blind Boys Of Alabama - Rock Me
TTITLE15=Jools Holland and India Arie - Georgia On My Mind
TTITLE16=Jools Holland and Tom Jones - Think
TTITLE17=Jools Holland and Sam Brown - Valentine Moon
TTITLE18=Jools Holland and Suggs - Oranges And Lemons Again
TTITLE19=Jools Holland and Solomon Burke and Eric Clapton - Mabel
TTITLE20=Jools Holland and Bono - If You Wear That Velvet Dress
EXTD=
EXTT0=
EXTT1=
EXTT2=
EXTT3=
EXTT4=
EXTT5=
EXTT6=
EXTT7=
EXTT8=
EXTT9=
EXTT10=
EXTT11=
EXTT12=
EXTT13=
EXTT14=
EXTT15=
EXTT16=
EXTT17=
EXTT18=
EXTT19=
EXTT20=
PLAYORDER=
